<svg width="50" height="50" viewBox="0 0 50 50" xmlns="http://www.w3.org/2000/svg"><title>logo_admyt</title><g id="Page-1" fill="none" fill-rule="evenodd"><g id="TM---Home---1.0-Copy" transform="translate(-616 -2058)"><g id="Group-8-Copy-2" transform="translate(250 2052)"><text id="Admyt" font-family="Lora-Regular, Lora" font-size="28" fill="#212121"><tspan x="0" y="26">Admyt</tspan></text><g id="ADMYT_APPICON_YELLOW_RGB_180x180" transform="translate(366 6)" fill="#F8CE23"><path d="M49.997 35.755l-9.872-5.882V35.1l9.874 5.883-.002-5.228zM50 4.761V4.69c0-1.305-.518-2.45-1.414-3.305A5.02 5.02 0 0 0 46.083.096 5.207 5.207 0 0 0 45.084 0a5.06 5.06 0 0 0-3.501 1.384 4.606 4.606 0 0 0-1.45 3.341c0 .237.044.53-.012.756.025-.101-1.401-.965-1.553-1.063a24.49 24.49 0 0 0-1.779-1.045A24.96 24.96 0 0 0 29.19.798a25.208 25.208 0 0 0-7.71-.087 25.397 25.397 0 0 0-11.02 4.368 24.825 24.825 0 0 0-6.964 7.493 24.81 24.81 0 0 0-3.37 15.175c.002.014 0 .04 0 .04a24.427 24.427 0 0 0 5.565 13.21c2.112 2.535 4.763 4.584 7.696 6.119 1.546.808 3.2 1.523 4.888 1.987a25.405 25.405 0 0 0 10.623.591 24.977 24.977 0 0 0 6.715-2.055V35.835c-.126.123-.25.247-.38.367a15.166 15.166 0 0 1-6.168 3.405c-3.195.887-6.693.706-9.765-.542a15.194 15.194 0 0 1-6.837-5.555c-2.495-3.718-3.188-8.486-1.848-12.75a14.911 14.911 0 0 1 2.763-5.06 15.076 15.076 0 0 1 11.588-5.458l.05-.001c.88 0 1.741.074 2.579.217a15.2 15.2 0 0 1 9.077 5.22 14.886 14.886 0 0 1 3.428 8.55l.025.415 9.872 5.882L50 5.885V4.762zm-9.875 40.166a4.62 4.62 0 0 0 1.436 2.997 5.07 5.07 0 0 0 3.52 1.385c.345 0 .679-.033 1.002-.096a5.018 5.018 0 0 0 2.503-1.289 4.5 4.5 0 0 0 1.162-1.861l-9.623-5.733v4.597z" id="Fill-3"/></g></g></g></g></svg>