<svg width="12" height="80" viewBox="0 0 12 80" xmlns="http://www.w3.org/2000/svg"><title>arrow</title><g id="Page-1" fill="none" fill-rule="evenodd" opacity=".2"><g id="TM---Home---1.0-Copy" transform="translate(-714 -3298)" fill="#212121"><g id="Group-18" transform="translate(491 3298)"><path d="M231.228 75.699A20.073 20.073 0 0 0 228.802 80a19.634 19.634 0 0 0-2.396-4.24A20.583 20.583 0 0 0 223 72.193a6.98 6.98 0 0 1 .283-.023c.087-.005.171-.008.253-.008.765 0 1.553.21 2.365.628.811.419 1.64 1.046 2.487 1.883V0c-.867.857 1.735.878.827 0v74.673c.847-.837 1.676-1.464 2.487-1.883.812-.418 1.6-.628 2.365-.628a4.563 4.563 0 0 1 .536.031 19.398 19.398 0 0 0-3.375 3.506z" id="↕"/></g></g></g></svg>