<svg width="50" height="50" viewBox="0 0 50 50" xmlns="http://www.w3.org/2000/svg" xmlns:xlink="http://www.w3.org/1999/xlink"><title>logo_blueshyft</title><defs><rect id="path-1" width="50" height="50" rx="6.25"/><mask id="mask-2" x="0" y="0" width="50" height="50" fill="#fff"><use xlink:href="#path-1"/></mask></defs><g id="Page-1" fill="none" fill-rule="evenodd"><g id="TM---Home---1.0-Copy" transform="translate(-615 -1794)"><g id="Group-8" transform="translate(250 1777)"><text id="Blueshyft-POS-Platfo" font-family="Lora-Regular, Lora" font-size="28" fill="#212121"><tspan x="0" y="43">Blueshyft POS Platform</tspan></text><g id="Group-17" transform="translate(365 17)"><use id="Rectangle-2-Copy" stroke="#4A90E2" mask="url(#mask-2)" stroke-width="2.5" fill="#4A90E2" xlink:href="#path-1"/><g id="Line-Copy-+-blueshyft" transform="translate(15 9.375)" fill="#FFF"><path d="M0 30.674V0h5.099v12.096A10.05 10.05 0 0 1 7.947 9.96c1.06-.53 2.298-.795 3.716-.795 1.156 0 2.212.238 3.168.712.957.475 1.783 1.167 2.477 2.075.695.908 1.232 2.03 1.61 3.365.379 1.334.568 2.869.568 4.603 0 1.582-.213 3.048-.64 4.397-.426 1.348-1.035 2.518-1.827 3.509a8.44 8.44 0 0 1-2.869 2.322c-1.121.557-2.377.836-3.767.836a7.501 7.501 0 0 1-1.775-.196 6.277 6.277 0 0 1-1.466-.547c-.44-.234-.85-.52-1.228-.857-.378-.337-.74-.712-1.084-1.125l-.227 1.424c-.082.358-.223.613-.423.764-.2.152-.471.227-.815.227H0zm9.908-17.546c-1.06 0-1.964.224-2.714.671-.75.448-1.449 1.077-2.095 1.89v9.494c.578.716 1.207 1.215 1.888 1.497.682.282 1.421.423 2.22.423.77 0 1.465-.144 2.084-.433a4.085 4.085 0 0 0 1.58-1.321c.433-.592.767-1.339 1-2.24.235-.901.351-1.964.351-3.19 0-1.238-.1-2.287-.299-3.147-.2-.86-.485-1.559-.856-2.095-.372-.537-.823-.93-1.353-1.177-.53-.248-1.131-.372-1.806-.372z" id="blueshyft"/></g></g></g></g></g></svg>