<svg width="50" height="50" viewBox="0 0 50 50" xmlns="http://www.w3.org/2000/svg"><title>Fill 1</title><g id="Page-2" fill="none" fill-rule="evenodd"><g id="TM---Home---1.0-Copy" transform="translate(-1124 -2434)"><g id="Group-8-Copy-13" transform="translate(760 2434)"><path d="M373.47 11.052c.792.594 1.188 1.584.592 2.374-.79.794-1.78.794-2.572.198-.989-.594-1.186-1.58-.593-2.572.593-.791 1.583-.791 2.572 0zm.395-.592c-.792-.593-2.375-1.187-3.364.396-1.186 1.383-.197 2.57.596 3.364.79.59 2.176.986 3.361-.396.99-1.387.2-2.772-.593-3.364zm16.422-4.747l-2.375-3.96h-.793v4.75h.596v-3.76l2.375 3.76h.79v-4.75h-.593v3.96zm-11.872-.793l1.583-.594 1.582 3.757.595-.197-1.581-3.757 1.581-.794-.395-.396-3.561 1.387.196.594zm0 3.956l-4.153-1.583-.594.396 2.967 3.757.394-.394-2.37-2.969 4.35 1.584.592-.394-2.966-3.956-.395.396 2.175 3.163zm21.765.397l-.2-.2.2-4.35-.793-.397-2.375 3.956.396.398 2.175-3.363v4.55l.597.394 2.371-3.958-.396-.394-1.975 3.364zm-4.157-2.177l-2.768-.793.393-1.383 2.574.593.196-.396-2.57-.79.396-1.388 2.768.793V3.14l-3.164-.99-1.385 4.55 3.363.99.197-.593zm10.09 7.913l-.99 1.188.397.592 2.967-4.153-.397-.593-4.946 1.187.397.594 1.385-.398 1.186 1.583zm-.593-1.78l2.178-.396-1.386 1.584-.792-1.187zM384.35 2.35h-.593l.989 4.747.593-.197-.989-4.55zm19.19 5.34l1.185.991-2.964 2.966.393.593 2.968-2.966 1.189.988.396-.394-2.772-2.574-.395.396zm7.32 9.298l-.199-.59-4.55 1.383.792 2.967.594-.197-.79-2.376 4.154-1.187zm-41.546-1.978c-.792-.2-1.582.197-2.175 1.188-.396 1.386.196 2.573 1.582 2.966 1.582.793 2.768 0 3.165-.99 0-.197.593-1.58-.99-2.57l-.196.594c.79.592.79 1.386.593 1.779-.397.99-1.385 1.187-2.374.594-1.187-.396-1.584-1.383-1.187-2.173.197-.397.593-.99 1.385-.794l.197-.594zm35.215 24.139c-.99-.794-1.186-1.781-.594-2.574.594-.79 1.584-.79 2.573-.197.792.794 1.189 1.78.592 2.57-.789.793-1.78.793-2.571.2zm-.396.395c.792.591 2.178 1.185 3.364-.395.989-1.387.2-2.574-.594-3.168-.792-.79-2.374-1.186-3.363.2-1.186 1.384-.197 2.768.593 3.363zm-16.419 4.944l2.375 3.76h.79v-4.75h-.593v3.76h-.197l-2.375-3.76h-.596v4.75h.596v-3.76zm11.672.594l-1.385.793-1.584-3.957-.592.197 1.582 3.957-1.582.594.197.396 3.56-1.387-.196-.593zm0-3.757l4.154 1.58.793-.393-2.968-3.957-.397.394 2.175 3.166-4.153-1.584-.594.397 2.772 3.76.593-.397-2.375-2.966zm-21.565-.397v4.551l.593.396 2.571-4.157-.592-.196-1.98 3.166v-4.553l-.592-.394-2.571 4.153.592.2 1.98-3.166zm4.154 1.978l2.575.792-.398 1.584-2.373-.794-.2.594 2.375.793-.396 1.384-2.573-.791-.195.394 3.362.99 1.187-4.55-3.364-.99v.594zm-10.09-7.914l.794-.987-.2-.594-3.165 3.957.396.594 4.947-.99-.396-.594-1.386.197-.99-1.583zm.396 1.782l-2.175.594 1.383-1.783.792 1.19zm21.366 11.078l.596-.197-.989-4.55h-.593l.986 4.747zm-19.386-5.34l-.99-1.187 2.968-2.97-.596-.393-2.964 2.966-.99-1.187-.396.394 2.571 2.77.397-.393zm-7.122-9.498l.196.79 4.55-1.382-.99-2.971-.395.2.596 2.177-3.957 1.186zm41.347 1.978c.793.2 1.781 0 2.175-1.187.596-1.187 0-2.374-1.382-2.967-1.782-.79-2.771 0-3.168.99-.197.396-.592 1.78.99 2.57l.2-.393c-.99-.793-.793-1.387-.793-1.78.592-1.19 1.386-1.19 2.571-.794.99.397 1.386 1.387 1.188 2.177-.198.397-.592.99-1.581.79l-.2.594zm-37.162-9.522h-.004v-.738h.004a17.535 17.535 0 0 1 5.15-12.061 17.523 17.523 0 0 1 12.426-5.153c4.85 0 9.244 1.97 12.426 5.153a17.535 17.535 0 0 1 5.154 12.43 17.21 17.21 0 0 1-5.128 12.305c-3.185 3.147-7.591 5.079-12.452 5.079-4.862 0-9.266-1.932-12.451-5.08a17.206 17.206 0 0 1-5.125-11.935zm5.67-12.277a16.797 16.797 0 0 0-4.936 11.908c0 4.632 1.876 8.783 4.906 11.78 3.051 3.015 7.274 4.865 11.936 4.865s8.885-1.85 11.936-4.865a16.474 16.474 0 0 0 4.905-11.78c0-4.647-1.886-8.86-4.934-11.908A16.791 16.791 0 0 0 388.9 8.255a16.791 16.791 0 0 0-11.907 4.937zm-9.659 13.095h1.187V25.1h-1.187v1.187zm31.258 11.08h-2.273l.097-.196c-.788 0-.592-.398-.592-.398.197-.396 1.385-.199 1.385-.199v-.594s.197-.396.397-.79c.59-.99 1.383-1.979 1.975-2.373v-.594s-.393-.396-.79-.596c-.199-.394-.596-.986-.791-1.58 0-.2-.394-.793.395-1.98.397-.398.99-.99.397-2.77l.989-.393s.397-.2.593.196c.197.197.793.197.396 1.976-.592 1.584-.792.991-.792 2.574 0 1.384 1.978 2.967 3.364 2.177 0 0-.594-.397-.594-.99-.199-1.781 1.384-5.54.99-6.727-.596-.99-1.189-1.383-1.782-1.186-.79 0-1.778.593-2.175.99-.396.196-.99.196-1.386 0-.2 0-1.186-1.387-2.175-1.584-1.385-.397-3.56 0-3.56 0l-1.783-.197-1.185-.2c-.396-.393-.396-1.186-.396-1.186s.592 0 .792-.197c0-.594-.596-.594-.396-.99 0-.198.196.196.593-.397.197-.197-.197-.393-.197-.593 0-.396.593 0 .593-.594 0-.79-.396-.593-.396-.79 0-.397.592-.199.592-.593 0-.593-.395-.396-.592-.794 0-.393.79-.196.592-.79-.196-.592-.592 0-.789-.395-.2-.394.593-.197.394-.79-.197-.594-.79-.2-.99-.398 0-.396.596-.396.2-.989 0-.198-.2-.198-.593-.198l-1.586-1.978v1.582l-2.175.594-.196.199-2.575.79h-.394l-.2.198v.396l-.195.2-.2.197v.393l.396.2 1.385-.396.397.196-.199.396-1.187.2-.197.197-.2.196.2.398.394.2.397-.2.395-.197.198-.2 1.385-.197.2.196.789.201-.196 1.187s0 .396-.593.987c-.397.396-.99.792-1.386 1.188-.397.594-.792.791-1.189 1.385-.394.396-.99 2.177-.99 2.177l-1.185-.791-.396-.396-.99-.197c-.593.393-2.175.79-3.364.987-.59.792-1.382 1.386-1.382 1.386v-.2l-.397 2.377 1.78-.596.198-.59s-.79-.2-.592-.597c.393-.594.989.2.989.2l.395-.2.198-.394 1.582-.99 1.186.396 1.783 1.781-1.583-.594-.2-.199-1.58.397c-.395.989-1.781 2.573-1.781 2.573-.2 1.186 0 .79-.397 1.977l.397 1.98 1.582-1.387-.196-.397s-.597-.196-.597-.593c0-.394.793 0 .793 0v-.197s-.196-.593 0-.793c0-.394 1.186-1.976 1.186-1.976h.793l3.957 2.176.395-.2.198-.394 2.768.99s.596 0 .989.197c.396 0 3.761-.393 3.761-.393l-.396 1.183s0 .397.2.794c0 .397.79 1.186.79 1.383 0 0 1.185.99 1.185 1.584.2.593-.393.99-.79 1.187-.395.396-1.582.792-1.582.792-.199.394-.593.79-.99.99l-.445 1.187h-10.636l.793.987h18.004l.592-.987zm-4.471 0H392l.065-.196c-.79 0-.592-.597-.592-.597.2-.394 1.385-.197 1.385-.197l.197-.197s-.197-.396.2-.596c.393-.394 2.375-1.977 2.375-1.977l.196-.197v-.199c0-.198 0-.198-.196-.394-.397-.396-1.19-1.584-1.19-2.376 0-.791.198-.594.397-.991 0 .794.593 1.584.989 1.98.396.197 1.582.793 1.782 1.387 0 .593-.2.593-.596 1.187-.196.394-1.382 1.58-1.779 1.78l-.793.79-.317.793zm14.957-11.08h1.188V25.1h-1.188v1.187zm-45.077-.818H364v-.738h.003c.096-6.794 2.85-12.938 7.278-17.402A24.698 24.698 0 0 1 388.901 0c6.927 0 13.201 2.811 17.744 7.354C411.188 11.897 414 18.173 414 25.1c0 6.839-2.821 13.074-7.377 17.593C402.081 47.198 395.816 50 388.901 50a24.78 24.78 0 0 1-17.596-7.28 24.861 24.861 0 0 1-7.302-17.251zm7.8-17.622c-4.375 4.411-7.065 10.514-7.065 17.253 0 6.65 2.698 12.71 7.085 17.097a24.052 24.052 0 0 0 17.078 7.064 24.366 24.366 0 0 0 17.203-7.09c4.42-4.385 7.158-10.435 7.158-17.071a24.286 24.286 0 0 0-7.136-17.224A24.285 24.285 0 0 0 388.901.738c-6.71 0-12.74 2.717-17.098 7.11z" id="Fill-1" fill="#F3B335"/><text id="Conti-365-Rewards" font-family="Lora-Regular, Lora" font-size="28" fill="#212121"><tspan x="0" y="26">Conti 365 Rewards</tspan></text></g></g></g></svg>