<svg width="49" height="49" viewBox="0 0 49 49" xmlns="http://www.w3.org/2000/svg"><title>logo_thiknmill_footer</title><g id="Page-2" fill="none" fill-rule="evenodd" opacity=".3"><g id="TM---Home---1.0-Copy" transform="translate(-696 -6994)" fill="#000"><g id="Group-11" transform="translate(444 6914)"><path d="M276.273 129c13.406 0 24.274-10.969 24.274-24.5S289.679 80 276.273 80C262.868 80 252 90.969 252 104.5s10.868 24.5 24.273 24.5zm0-3.387c11.553 0 20.918-9.452 20.918-21.113 0-11.66-9.365-21.113-20.918-21.113-11.552 0-20.918 9.452-20.918 21.113 0 11.66 9.366 21.113 20.918 21.113zm-6.227-16.361c-1.028 0-1.418-.477-1.418-1.66v-5.272h2.035v-1.805h-2.035v-2.636h-2.344v2.636h-1.748v1.805h1.748v5.624c0 2.304.966 3.238 3.166 3.238.432 0 .966-.083 1.316-.187v-1.847c-.165.062-.452.104-.72.104zm14.393-8.986c-1.583 0-2.59.705-3.352 1.91-.534-1.246-1.644-1.91-3.084-1.91-1.233 0-2.159.498-2.899 1.515h-.04v-1.266h-2.242v10.542h2.344v-5.644c0-2.034.802-3.238 2.2-3.238 1.213 0 1.871.872 1.871 2.366v6.516h2.344v-5.686c0-2.013.822-3.196 2.2-3.196 1.172 0 1.892.747 1.892 2.615v6.267h2.343v-6.495c0-2.843-1.357-4.296-3.577-4.296z" id="Oval-6"/></g></g></g></svg>