<svg width="49" height="49" viewBox="0 0 49 49" xmlns="http://www.w3.org/2000/svg"><title>Page 1</title><g fill="#B2B2B2" id="Page-1" fill-rule="evenodd"><path d="M24.759 14.117a.995.995 0 0 0-1.366 0l-8.167 8.164a.966.966 0 1 0 1.366 1.366l6.386-6.383V33.63a.966.966 0 0 0 1.932 0V17.003l6.646 6.646a.96.96 0 0 0 .682.282.967.967 0 0 0 .682-1.647l-8.161-8.167z" id="Fill-1" stroke="#B2B2B2"/><path d="M24.5 0C11.22 0 0 11.22 0 24.5S11.22 49 24.5 49 49 37.78 49 24.5 37.78 0 24.5 0zm0 45.833c-11.564 0-21.333-9.769-21.333-21.333 0-11.564 9.769-21.333 21.333-21.333 11.564 0 21.333 9.769 21.333 21.333 0 11.564-9.769 21.333-21.333 21.333z" id="Fill-2"/></g></svg>