<svg width="76" height="80" viewBox="0 0 76 80" xmlns="http://www.w3.org/2000/svg"><title>icon_ui</title><g id="Page-1" fill="none" fill-rule="evenodd"><g id="TM---Home---1.0-Copy" transform="translate(-754 -4325)" fill="#000"><g id="Group-7" transform="translate(210 3811)"><g id="Group-24" transform="translate(360 514)"><g id="Page-1" transform="translate(184)"><path d="M26.443 23.427c1.429-.094 2.67 0 3.904.57l-.852.765 5.426 5.426 1.716-1.716c.381.188.858.383 1.24.57l13.999 14a3.762 3.762 0 0 0 .57 4.572c.763.764 1.715 1.142 2.668 1.142.952 0 1.904-.383 2.669-1.142 1.522-1.523 1.522-3.904 0-5.426a3.76 3.76 0 0 0-4.574-.571l-11.81-11.711a10.08 10.08 0 0 0 2.381 0C56.066 28.764 68.542 10.57 69.018 9.812L65.873 7.62c-.094.188-11.905 17.525-22.475 18.478-1.428.093-2.67 0-3.903-.57l.857-.86-5.431-5.331-1.717 1.715c-.381-.188-.857-.382-1.24-.57L17.966 6.48a3.43 3.43 0 0 0 .571-1.905c0-1.048-.382-2-1.141-2.67-1.523-1.522-3.904-1.522-5.426 0-1.523 1.523-1.523 3.904 0 5.427.763.764 1.715 1.141 2.667 1.141.666 0 1.335-.189 1.905-.57l11.811 11.81a10.081 10.081 0 0 0-2.38 0C13.684 20.853 1.21 39.048.733 39.807L3.879 41.9c.183-.183 11.994-17.52 22.564-18.473zM55.11 43.045c.476 0 .952.19 1.334.572.765.763.765 1.904 0 2.667-.763.765-1.905.765-2.668 0-.476-.476-.665-1.239-.476-1.81.094-.287.287-.57.476-.857.287-.289.57-.383.857-.477.195-.095.289-.095.477-.095zM13.399 5.902c-.765-.763-.765-1.905 0-2.668.762-.764 1.904-.764 2.667 0 .382.383.571.859.571 1.335 0 .188 0 .287-.095.476-.094.287-.287.57-.476.857-.287.288-.57.382-.857.476-.67.195-1.335 0-1.81-.476zm21.428 16.291l1.428 1.24 1.335 1.334-2.57 2.569-.1.095-2.669-2.67 2-1.998.576-.57z" id="Fill-1"/><path d="M57.114 51.523a.911.911 0 0 0-.666.858v26.667c0 .382.289.764.57.858.096 0 .19.094.383.094a.846.846 0 0 0 .665-.288l6.667-7.143 9.711 1.24c.383.094.765-.187.953-.476.188-.382.188-.764-.094-1.046L58.16 51.811c-.194-.288-.67-.382-1.046-.288zm7.424 19.141c-.287 0-.57.095-.858.288l-5.332 5.715V55.05L72.25 71.622l-7.713-.958z" id="Fill-2"/></g></g></g></g></g></svg>