<svg width="50" height="50" viewBox="0 0 50 50" xmlns="http://www.w3.org/2000/svg" xmlns:xlink="http://www.w3.org/1999/xlink"><title>logo_keystone</title><defs><path d="M48.104 0A2.144 2.144 0 0 1 50 2.13v45.727C50 49.04 49.04 50 47.857 50H2.143A2.143 2.143 0 0 1 0 47.857V2.129C0 1.03.829.123 1.896 0h46.208z" id="path-1"/><mask id="mask-2" x="0" y="0" width="50" height="50" fill="#fff"><use xlink:href="#path-1"/></mask></defs><g id="Page-1" fill="none" fill-rule="evenodd"><g id="TM---Home---1.0-Copy" transform="translate(-1125 -1794)"><g id="Group-8-Copy-7" transform="translate(760 1794)"><text id="Keystone-JS" font-family="Lora-Regular, Lora" font-size="28" fill="#212121"><tspan x="0" y="26">Keystone JS</tspan></text><g id="Group-9" transform="translate(365)"><use id="Clip-2" stroke="#2BA0DB" mask="url(#mask-2)" stroke-width="2.5" fill="#2BA0DB" xlink:href="#path-1"/><path id="Path" fill="#FFF" d="M26.139 23.928l13.413 16.784h-8.936l-9.312-12.36-2.74 3.353v9.007h-7.126V9.274h7.125v13.831l11.048-13.83h8.931z"/></g><text id="Node.js-CMS-&amp;-Web-Ap" font-family="SFUIText-Light, SF UI Text" font-size="18" font-weight="300" fill="#000"><tspan x="0" y="65">Node.js CMS &amp; Web Application Platform </tspan> <tspan x="0" y="89">for developing database-driven websites, </tspan> <tspan x="0" y="113">applications, and APIs</tspan></text></g></g></g></svg>