<svg width="58" height="50" viewBox="0 0 58 50" xmlns="http://www.w3.org/2000/svg"><title>Fill 3</title><g id="Page-2" fill="none" fill-rule="evenodd"><g id="TM---Home---1.0-Copy" transform="translate(-620 -1994)"><g id="Group-8-Copy-6" transform="translate(250 1993)"><text id="Macmillan-Education" font-family="Lora-Regular, Lora" font-size="28" fill="#212121"><tspan x="0" y="27">Macmillan Education</tspan></text><path d="M370.069 30.483c-.015-.015-.028-3.352-.028-7.416V15.68l.522-.653a57.113 57.113 0 0 1 1.007-1.232c.962-1.186 3.223-3.584 4.442-4.71.318-.294.7-.648.847-.786.287-.267.994-.861 1.818-1.526l.452-.366c.164-.134.45-.355.636-.492s.407-.304.493-.37c.085-.065.56-.39 1.053-.72 2.409-1.61 4.627-2.726 6.56-3.299l.495-.148c.414-.126 1.45-.298 2.098-.348 1.247-.096 2.35.037 3.294.397 1.221.466 2.31 1.523 3.015 2.925.488.974.62 1.431.907 3.144.187 1.119.21 1.342.29 2.719.091 1.568.134 1.882.318 2.349.216.547.487.828.89.925.388.093 1.14-.082 1.747-.406a.975.975 0 0 1 .147-.07c.097-.007 1.133-.784 1.794-1.344.201-.17.446-.375.543-.454a45.289 45.289 0 0 0 1.402-1.195c.174-.166.545-.491 1.61-1.409.357-.306.895-.771 1.196-1.032.301-.262.675-.578.83-.703.156-.125.35-.284.43-.353.082-.07.197-.163.257-.207.06-.044.236-.184.392-.31.157-.128.4-.314.54-.414l.723-.519c.568-.408 1.826-1.166 2.305-1.389 1.222-.567 3.093-1.071 4.422-1.19 1.635-.148 3.308.126 4.68.765.372.173 1.047.602 1.442.917.294.233.922.863 1.168 1.171l.281.349c.134.165.493.716.688 1.056.195.339.673 1.379.798 1.735.157.448.333 1.054.534 1.84.145.568.294 1.537.418 2.726.021.208.047 3.466.058 7.389l.019 7.017-.112-.014c-.12-.014-.13-.036-.215-.426-.262-1.211-.372-1.634-.59-2.273-.621-1.824-1.557-3.427-2.528-4.33-1.052-.98-1.884-1.497-3.046-1.894-.513-.175-1.744-.4-2.355-.432-.81-.042-1.991.099-3 .357-.435.11-.937.26-1.116.331-.18.072-.45.175-.6.23-.694.25-2.259 1.075-3.114 1.639-.42.277-1.083.772-1.67 1.247-.28.228-.57.46-.64.517-.421.336-1.61 1.362-1.698 1.466-.023.026-.22.205-.44.397-.352.309-.69.6-2.1 1.815-.198.17-.486.412-.641.537-.155.125-.36.293-.455.372-.095.08-.3.247-.454.372a56.46 56.46 0 0 0-.615.509c-.572.48-1.24.886-1.864 1.133-.334.131-.415.147-.786.151-.72.008-1.051-.192-1.297-.78-.248-.594-.373-1.616-.376-3.079-.003-1.191-.097-2.03-.35-3.12-.396-1.708-1.322-3.347-2.373-4.199-.681-.552-1.072-.774-1.847-1.047-.943-.333-1.689-.425-2.66-.33-.634.062-1.837.27-2.057.355a41.44 41.44 0 0 1-1.027.326c-1.68.52-2.835 1.047-5.056 2.312-.644.366-1.442.877-2.294 1.468-.75.52-.744.516-1.818 1.343-.074.057-.269.215-.434.351l-.454.372c-.562.451-.817.671-1.59 1.37-1.16 1.047-2.922 2.817-4.067 4.084-1.179 1.304-1.56 1.736-1.625 1.84-.052.082-.119.104-.17.054zM370 43.564v-7.44l.483-.607c.266-.333.55-.683.63-.777.081-.093.25-.296.374-.45.953-1.177 3.222-3.584 4.442-4.711.318-.294.7-.648.847-.786.287-.267.995-.861 1.819-1.526l.452-.366c.164-.133.45-.355.635-.492.186-.137.408-.304.493-.37.085-.065.56-.39 1.054-.72 2.408-1.61 4.626-2.726 6.559-3.299l.495-.148c.414-.126 1.45-.298 2.098-.348 1.247-.096 2.35.037 3.294.397 1.222.466 2.311 1.523 3.015 2.925.489.974.62 1.432.907 3.144.187 1.119.21 1.342.29 2.719.092 1.568.134 1.882.319 2.349.216.547.486.828.89.925.388.093 1.14-.082 1.746-.406a.973.973 0 0 1 .147-.07c.097-.007 1.133-.784 1.794-1.344.201-.17.446-.375.544-.454a45.275 45.275 0 0 0 1.401-1.195c.174-.166.546-.491 1.611-1.408.357-.307.894-.772 1.195-1.033.302-.262.675-.578.83-.703.156-.125.35-.284.431-.353.081-.07.196-.163.256-.207.06-.044.236-.184.393-.31.156-.128.399-.314.54-.414l.723-.519c.567-.408 1.825-1.166 2.304-1.389 1.222-.567 3.093-1.071 4.423-1.19 1.635-.148 3.307.126 4.68.765.372.173 1.047.602 1.442.917.293.233.921.863 1.168 1.171l.28.349c.134.165.493.716.689 1.056.194.339.672 1.379.797 1.736.157.447.333 1.053.534 1.838.145.569.294 1.538.418 2.727.022.208.047 3.466.058 7.389l.02 7.017-.113-.014c-.12-.014-.13-.036-.215-.426-.262-1.211-.372-1.634-.59-2.273-.62-1.824-1.557-3.427-2.527-4.33-1.053-.98-1.885-1.497-3.046-1.894-.513-.175-1.745-.4-2.356-.432-.81-.041-1.99.099-3 .357-.435.11-.937.26-1.116.331-.179.072-.449.175-.6.23-.694.251-2.258 1.075-3.114 1.64-.42.276-1.082.771-1.669 1.246l-.64.517c-.422.336-1.61 1.362-1.699 1.466-.022.027-.22.205-.439.397-.353.309-.69.6-2.1 1.815-.198.17-.487.412-.642.537-.155.125-.36.293-.455.372-.095.08-.299.247-.453.372-.154.125-.431.354-.616.51-.572.48-1.24.885-1.864 1.132-.334.132-.415.147-.785.151-.72.008-1.052-.192-1.298-.78-.248-.594-.373-1.615-.376-3.079-.002-1.191-.096-2.03-.349-3.12-.396-1.708-1.323-3.347-2.373-4.198-.682-.553-1.073-.775-1.848-1.048-.943-.332-1.688-.425-2.659-.33-.634.062-1.838.27-2.057.355-.063.024-.525.17-1.027.326-1.682.52-2.836 1.047-5.057 2.312a31.98 31.98 0 0 0-2.293 1.468c-.75.52-.744.516-1.819 1.343-.073.057-.269.215-.434.351-.165.136-.369.304-.454.372-.561.452-.817.672-1.59 1.37-1.16 1.047-2.921 2.817-4.067 4.084-1.178 1.304-1.56 1.736-1.625 1.84-.157.251-.155.348-.155-7.359z" id="Fill-3" fill="#CD0000"/></g></g></g></svg>