<svg width="70" height="70" viewBox="0 0 70 70" xmlns="http://www.w3.org/2000/svg"><title>Group</title><g id="Page-1" fill="none" fill-rule="evenodd"><g id="TM---Home---1.0-Copy" transform="translate(-1120 -4326)"><g id="Group-7" transform="translate(210 3811)"><g id="Group-22" transform="translate(720 515)"><text id="Mobile-apps" font-family="Lora-Regular, Lora" font-size="28" fill="#212121"><tspan x="0" y="93">Mobile apps</tspan></text><g id="Group" transform="translate(190)"><path d="M53.735 2.812c7.332 0 13.297 5.965 13.297 13.297v37.782c0 7.332-5.965 13.297-13.297 13.297H15.954c-7.333 0-13.298-5.965-13.298-13.297V16.109c0-7.332 5.965-13.297 13.298-13.297h37.781zm0-2.143H15.954C7.426.67.514 7.582.514 16.11v37.782c0 8.527 6.912 15.44 15.44 15.44h37.781c8.527 0 15.44-6.913 15.44-15.44V16.109c0-8.527-6.913-15.44-15.44-15.44z" id="Shape" fill="#000"/><path d="M.023 69.821L69.666.18M.023.179L69.666 69.82" id="Shape" stroke="#000" stroke-width=".25"/><g id="Shape" stroke="#000" stroke-width=".25"><path d="M1.172 47.679h67.344M1.172 35h67.344M1.172 22.321h67.344"/></g><g id="Shape" stroke="#000" stroke-width=".25"><path d="M47.523 68.672V1.328M34.844 68.672V1.328M22.166 68.672V1.328"/></g><g id="Shape" stroke="#000" stroke-width=".25"><path d="M64.666 69.33V.67M5.023 69.33V.67"/></g><g id="Shape" stroke="#000" stroke-width=".25"><path d="M69.175 5.179H.514M69.175 64.821H.514"/></g><circle id="Oval" stroke="#000" stroke-width=".25" cx="34.844" cy="35" r="29.786"/><circle id="Oval" stroke="#000" stroke-width=".25" cx="34.844" cy="35" r="17.973"/><ellipse id="Oval" stroke="#000" stroke-width=".25" cx="34.844" cy="35" rx="12.679" ry="12.679"/></g></g></g></g></g></svg>