<svg width="56" height="52" viewBox="0 0 56 52" xmlns="http://www.w3.org/2000/svg"><title>logo_react</title><g id="Page-1" fill="none" fill-rule="evenodd"><g id="TM---Home---1.0-Copy" transform="translate(-612 -2781)"><g id="Group-8-Copy-8" transform="translate(250 2781)"><text id="React-Select" font-family="Lora-Regular, Lora" font-size="28" fill="#212121"><tspan x="0" y="27">React-Select</tspan></text><g id="Group-2" transform="translate(362)"><ellipse id="Oval" fill="#B2B2B2" cx="28.003" cy="25.909" rx="5.212" ry="5.259"/><path d="M28.003 15.217c6.998 0 13.499 1.013 18.4 2.715 5.907 2.052 9.538 5.161 9.538 7.977 0 2.934-3.849 6.237-10.19 8.357-4.796 1.603-11.105 2.44-17.748 2.44-6.81 0-13.26-.786-18.108-2.458-6.135-2.115-9.83-5.461-9.83-8.34 0-2.792 3.467-5.877 9.29-7.926 4.92-1.73 11.582-2.765 18.648-2.765z" id="Shape" stroke="#B0B0B0" stroke-width="1.408" stroke-dasharray="2.816901408450704,1.408450704225352"/><path d="M18.778 20.594c3.496-6.117 7.613-11.292 11.524-14.726 4.712-4.137 9.195-5.757 11.613-4.35 2.52 1.465 3.433 6.479 2.085 13.08-1.02 4.992-3.453 10.925-6.772 16.73-3.402 5.953-7.298 11.197-11.156 14.6-4.88 4.304-9.6 5.862-12.071 4.424-2.398-1.395-3.315-5.966-2.165-12.079.972-5.164 3.412-11.504 6.942-17.68z" id="Shape" stroke="#B0B0B0" stroke-width="1.408" stroke-dasharray="2.816901408450704,1.408450704225352"/><path d="M18.787 31.344c-3.506-6.11-5.895-12.294-6.89-17.427-1.2-6.185-.351-10.913 2.064-12.324 2.517-1.47 7.278.236 12.274 4.711 3.777 3.384 7.656 8.474 10.984 14.274 3.413 5.947 5.97 11.972 6.965 17.042 1.259 6.417.24 11.32-2.229 12.761-2.395 1.4-6.779-.082-11.453-4.14-3.95-3.43-8.175-8.727-11.715-14.897z" id="Shape" stroke="#B0B0B0" stroke-width="1.408" stroke-dasharray="2.816901408450704,1.408450704225352"/></g></g></g></g></svg>