<svg width="55" height="55" viewBox="0 0 55 55" xmlns="http://www.w3.org/2000/svg"><title>icon_tick_outline</title><g id="Page-1" fill="none" fill-rule="evenodd"><g id="TM---Home---1.0-Copy" transform="translate(-170 -812)" fill="#26CD5D"><g id="Page-1" transform="translate(170 812)"><path d="M27.5.73C12.715.73.73 12.719.73 27.5c0 14.785 11.985 26.77 26.77 26.77S54.27 42.285 54.27 27.5 42.285.73 27.5.73zm0 50.864c-13.285 0-24.094-10.809-24.094-24.094 0-13.285 10.809-24.094 24.094-24.094 13.285 0 24.094 10.809 24.094 24.094 0 13.285-10.809 24.094-24.094 24.094z" id="Fill-1"/><path id="Fill-2" d="M22.379 35.355l-7.309-7.453-1.91 1.875 9.199 9.379 18.743-18.742-1.891-1.891z"/></g></g></g></svg>