<svg width="72" height="80" viewBox="0 0 72 80" xmlns="http://www.w3.org/2000/svg"><title>icon_cto</title><g id="Page-1" fill="none" fill-rule="evenodd"><g id="TM---Home---1.0-Copy" transform="translate(-398 -4326)"><g id="Group-7" transform="translate(210 3811)"><g id="Group-25" transform="translate(0 515)"><text id="Virtual-CTO" font-family="Lora-Regular, Lora" font-size="28" fill="#212121"><tspan x="0" y="93">Virtual CTO</tspan></text><g id="noun_195956" transform="translate(188)" fill="#000"><path d="M3.02 32.417C1.15 34.183.113 36.573.009 39.17c-.104 2.598.831 4.988 2.597 6.962 1.87 1.974 4.364 3.013 7.066 3.013 2.493 0 4.779-.935 6.65-2.598 1.87-1.766 2.908-4.156 3.012-6.753.104-2.598-.831-4.987-2.597-6.962-1.87-1.974-4.468-3.013-7.065-3.013-2.494 0-4.78.935-6.65 2.598zm11.846 12.572c-1.455 1.35-3.221 2.078-5.195 2.078a7.473 7.473 0 0 1-5.507-2.39c-1.35-1.455-2.078-3.429-2.078-5.403 0-1.974.935-3.948 2.39-5.299 1.454-1.35 3.22-2.078 5.195-2.078 2.078 0 4.052.832 5.506 2.39 1.35 1.455 2.078 3.429 2.078 5.403 0 1.974-.935 3.844-2.39 5.299zm47.17-25.664a9.713 9.713 0 0 0 9.767-9.558c0-2.598-.935-4.988-2.806-6.858C67.231 1.04 64.737 0 62.14 0c-5.299 0-9.559 4.26-9.663 9.559 0 5.403 4.26 9.766 9.56 9.766zm-7.377-9.143l8.104-8.104a10.55 10.55 0 0 1 2.598.623L55.283 12.78c-.312-.728-.624-1.663-.624-2.598zm15.066-.52l-7.689 7.69v-.105c-.935 0-1.87-.207-2.701-.52l9.87-9.87c.416.936.52 1.87.52 2.806zm-4.78 7.066l4.364-4.364c-.831 2.078-2.39 3.637-4.364 4.364zm3.533-11.221L57.984 16c-.727-.52-1.35-1.04-1.87-1.767L66.712 3.637c.311.207.623.519.935.727.311.415.52.727.83 1.143zM60.27 2.39l-5.403 5.403c.727-2.598 2.701-4.676 5.403-5.403zm1.454 57.456c-5.298 0-9.558 4.26-9.662 9.56 0 2.597.935 4.986 2.805 6.857a9.364 9.364 0 0 0 6.754 2.909h.103c5.3 0 9.56-4.26 9.663-9.559.104-5.403-4.156-9.767-9.663-9.767zM39.698 38.86c.207.104.311.311.311.623 0 .208-.104.416-.311.623l-5.611 3.74h-.416c-.103 0-.207 0-.311-.103-.208-.104-.416-.312-.416-.623v-1.663H22.45c-.311 0-.52-.208-.52-.52v-3.22c0-.312.209-.52.52-.52h10.494v-1.662c0-.208.104-.52.416-.624a.887.887 0 0 1 .727 0l5.61 3.949zm8.727 2.909h-6.65v-4.156h6.65c3.117 0 6.026-1.143 8.208-3.325 1.87-1.766 3.013-4.156 3.325-6.65h-1.454c-.208 0-.416-.103-.416-.311-.104-.208-.104-.416 0-.52l3.636-5.506c.104-.104.208-.208.416-.208s.312.104.416.208l3.636 5.506c.104.208.104.416 0 .52-.104.104-.312.311-.415.311H64.01c-.311 3.637-1.974 7.066-4.675 9.663a14.4 14.4 0 0 1-3.221 2.39 14.4 14.4 0 0 1 3.22 2.39c2.494 2.493 4.053 5.61 4.572 9.143h1.455c.208 0 .416.104.416.311.103.208.103.416 0 .52L62.14 57.56c-.104.104-.208.207-.416.207-.207 0-.311-.103-.415-.207l-3.637-5.507c-.104-.208-.104-.416 0-.52.104-.103.312-.311.416-.311h1.662a11.73 11.73 0 0 0-3.22-6.13 10.664 10.664 0 0 0-8.105-3.325z" id="Shape"/></g></g></g></g></g></svg>