<svg id="Layer_1" xmlns="http://www.w3.org/2000/svg" viewBox="0 0 1207.9 457.9"><style>.st0{fill:#1b1b1b}</style><path class="st0" d="M230 456.9C104.3 456.9 2.1 354.7 2.1 229S104.3 1.1 230 1.1 457.9 103.4 457.9 229c0 125.7-102.2 227.9-227.9 227.9zm0-443.3C111.2 13.6 14.6 110.2 14.6 229S111.2 444.4 230 444.4c118.8 0 215.4-96.6 215.4-215.4S348.8 13.6 230 13.6z" id="XMLID_3_"/><path class="st0" d="M125.9 174.4V273M125.9 279.8c-3.7 0-6.8-3-6.8-6.8v-98.6c0-3.7 3-6.8 6.8-6.8 3.7 0 6.8 3 6.8 6.8V273c0 3.8-3 6.8-6.8 6.8zM178 201.3v98.6M178 306.7c-3.7 0-6.8-3-6.8-6.8v-98.6c0-3.7 3-6.8 6.8-6.8 3.7 0 6.8 3 6.8 6.8v98.6c-.1 3.8-3.1 6.8-6.8 6.8zM230 228.5v98.6M230 333.9c-3.7 0-6.8-3-6.8-6.8v-98.6c0-3.7 3-6.8 6.8-6.8 3.7 0 6.8 3 6.8 6.8v98.6c0 3.8-3.1 6.8-6.8 6.8z"/><g><path class="st0" d="M282 201.5v98.6M282 306.9c-3.7 0-6.8-3-6.8-6.8v-98.6c0-3.7 3-6.8 6.8-6.8 3.7 0 6.8 3 6.8 6.8v98.6c0 3.8-3 6.8-6.8 6.8z"/></g><g><path class="st0" d="M334 174.4V273M334 279.8c-3.7 0-6.8-3-6.8-6.8v-98.6c0-3.7 3-6.8 6.8-6.8 3.7 0 6.8 3 6.8 6.8V273c0 3.8-3 6.8-6.8 6.8z"/></g><g><path class="st0" d="M569.6 133.6l53.1 149.1 53.9-149.1h35l-73.5 193.5h-31.4L533 133.6h36.6zM774 331.4c-22 0-39.1-6.5-51.2-19.5-12.1-13-18.2-31.4-18.2-55.3 0-11.2 1.6-21.4 4.7-30.6 3.2-9.2 7.7-17.1 13.7-23.6 6-6.5 13.3-11.6 22-15.2 8.7-3.6 18.5-5.4 29.5-5.4 11.2 0 21.1 1.9 29.8 5.6 8.7 3.7 15.9 8.8 21.8 15.3s10.3 14.3 13.3 23.4c3 9.1 4.5 19.1 4.5 30 0 12.3-1.7 23.1-5.1 32.4-3.4 9.3-8.3 17.2-14.5 23.6-6.2 6.4-13.6 11.2-22.1 14.5-8.5 3.2-17.9 4.8-28.2 4.8zm.2-24.9c13 0 22.5-4.5 28.6-13.4 6.1-8.9 9.1-21.2 9.1-36.7 0-15.4-3-27.5-9.1-36.3-6.1-8.9-15.6-13.3-28.6-13.3-13 0-22.5 4.5-28.6 13.4-6.1 8.9-9.1 21-9.1 36.2 0 15.4 2.9 27.6 8.8 36.6s15.6 13.5 28.9 13.5zM996 277.8c-1.8 16.8-7.8 30-18 39.4-10.2 9.5-24.8 14.2-43.8 14.2-11.4 0-21.3-1.8-29.7-5.3-8.4-3.5-15.4-8.5-21-15s-9.8-14.3-12.5-23.4c-2.7-9.1-4.1-19.3-4.1-30.5s1.5-21.5 4.6-30.8c3.1-9.3 7.5-17.3 13.4-23.9 5.9-6.6 13.1-11.7 21.5-15.3 8.5-3.6 18.2-5.4 29-5.4 9.9 0 18.3 1.3 25.2 3.9 6.9 2.6 12.6 6.1 17.1 10.6 4.5 4.4 8 9.5 10.6 15.3 2.5 5.8 4.3 11.8 5.4 18.2l-30.6 4.6c-1.4-7.9-4.2-14.5-8.3-19.8-4.1-5.2-10.9-7.9-20.5-7.9-6.9 0-12.6 1.4-17.1 4.3-4.5 2.9-8.1 6.6-10.8 11.2-2.7 4.6-4.7 9.9-5.8 15.9-1.2 6-1.8 12-1.8 18.2 0 7 .6 13.6 1.9 19.8 1.3 6.1 3.3 11.4 6 15.9 2.7 4.4 6.3 8 10.8 10.6 4.5 2.6 10 3.9 16.5 3.9 9.4 0 16.5-2.5 21.4-7.5 4.9-5 8-12.1 9.2-21.3H996zM1110.1 308.7c-5.2 6.3-11.7 11.6-19.2 15.7-7.6 4.2-16.8 6.2-27.6 6.2-6.7 0-12.9-.9-18.7-2.6-5.8-1.7-10.8-4.3-15-7.7-4.2-3.4-7.6-7.8-10-13.1-2.4-5.3-3.7-11.6-3.7-18.8 0-9.8 2.2-17.7 6.5-23.7 4.3-6.1 10-10.8 16.9-14.2 7-3.4 14.8-5.8 23.4-7.2 8.7-1.4 17.3-2.2 26-2.6l20.9-1.1v-6c0-10.7-2.6-18-7.7-22.1-5.2-4.1-11.9-6.1-20.2-6.1-9.6 0-16.7 1.6-21.3 4.9-4.6 3.3-7.6 8-9.1 14.1l-28.2-3c2.5-13.7 8.8-23.8 18.7-30.1 9.9-6.3 23.6-9.5 40.9-9.5 11.2 0 20.5 1.4 27.8 4.3 7.3 2.9 13.1 6.9 17.5 11.9 4.3 5.1 7.4 11.1 9.1 18 1.7 7 2.6 14.6 2.6 22.9V327h-29.5v-18.3zm-20.4-47.5c-9.2.5-16.7 1.5-22.4 3-5.7 1.4-10.1 3.3-13.1 5.6-3.1 2.3-5.1 4.9-6.1 7.9s-1.5 6.2-1.5 9.6c0 6.1 1.9 10.9 5.8 14.4 3.9 3.4 9.6 5.1 17.2 5.1 13.6 0 23.6-3.4 30.1-10.3s9.8-16.2 9.8-27.9v-8.1l-19.8.7zM1204.7 133.6v193.5h-30.9V133.6h30.9z"/></g></svg>