<svg width="98" height="40" viewBox="0 0 98 40" xmlns="http://www.w3.org/2000/svg"><title>ss</title><g id="Page-2" fill="none" fill-rule="evenodd"><g id="TM---Home---1.0-Copy" transform="translate(-580 -2434)"><g id="Group-8-Copy-12" transform="translate(250 2434)"><text id="Westpac-M&amp;A" font-family="Lora-Regular, Lora" font-size="28" fill="#212121"><tspan x="0" y="26">Westpac M&amp;A</tspan></text><g id="ss" transform="translate(330)" fill="#ED1A3A"><path d="M34.708 35.687L25.085 5.845C23.725 1.286 21.413 0 17.886 0H.01c1.405.576 2.332 4.195 2.332 4.195l8.636 29.968c.994 3.763 4.108 5.745 7.631 5.745h18.95c-1.358-.247-2.85-4.221-2.85-4.221" id="Fill-1"/><path d="M63.252 35.687l9.626-29.842C74.238 1.286 76.55 0 80.076 0h17.877c-1.404.576-2.335 4.195-2.335 4.195l-8.631 29.968c-.995 3.763-4.109 5.745-7.635 5.745h-18.95c1.359-.247 2.85-4.221 2.85-4.221" id="Fill-3"/><path id="Fill-4" d="M38.505 39.906h21.037V.236H38.505z"/></g></g></g></g></svg>